# xmcd CD database file
#
# Track frame offsets:
#	150
#	33475
#	70415
#	109950
#	143050
#	168292
#	191752
#	224020
#	256200
#
# Disc length: 3854 seconds
#
# Revision: 0
# Processed by: cddbd v1.5.2PL0 Copyright (c) Steve Scherf et al.
# Submitted via: CDex 1.70beta2
#
DISCID=8a0f0c09
DTITLE=Ben Winkelman Trio - The Spanish Tinge
DYEAR=1900
DGENRE=Jazz
TTITLE0=Hurtling Towards The Geave
TTITLE1=The More Complex Need of The Northen Soul
TTITLE2=Malady
TTITLE3=The Spanish Tinge
TTITLE4=Issachar
TTITLE5=Urge
TTITLE6=The Tearing of The Evil
TTITLE7=Aguantando La Zozobra Crepuscular
TTITLE8=Vilna
EXTD=
EXTT0=
EXTT1=
EXTT2=
EXTT3=
EXTT4=
EXTT5=
EXTT6=
EXTT7=
EXTT8=
PLAYORDER=
